<svg xmlns="http://www.w3.org/2000/svg" xmlns:xlink="http://www.w3.org/1999/xlink" width="284" height="217" viewBox="0 0 284 217">
  <defs>
    <polygon id="gentlilogo-a" points="0 .884 283.205 .884 283.205 217 0 217"/>
  </defs>
  <g fill="none" fill-rule="evenodd" transform="translate(0 -1)">
    <g transform="translate(0 .116)">
      <mask id="gentlilogo-b" fill="#fff">
        <use xlink:href="#gentlilogo-a"/>
      </mask>
      <path fill="#231F20" d="M261.9444,103.0615 L261.9034,103.0575 L261.5214,103.0375 L261.4804,103.0285 L261.4314,102.9205 L261.9784,102.9155 L262.0214,102.9135 L262.9494,102.9035 L263.1754,103.1905 C262.7704,103.1335 262.3564,103.0905 261.9444,103.0615 L261.9444,103.0615 Z M260.9644,102.9255 L261.4164,102.9205 L261.4634,103.0265 L260.9644,102.9255 Z M261.1574,103.0205 L260.9654,103.0155 L260.6424,102.9505 L260.6274,103.0105 L260.6194,103.0105 L260.6194,103.0355 L260.6194,103.0595 L260.6124,103.0595 L260.2194,103.0695 L260.1194,103.0695 L260.1194,102.9365 L260.1964,102.9345 L260.5484,102.9305 L260.6424,102.9505 L260.6484,102.9285 L260.7004,102.9285 L260.8094,102.9275 L261.2954,103.0265 L261.1574,103.0205 Z M260.0934,101.0985 L260.0754,101.1475 L260.0684,101.1665 L260.0754,101.0415 L260.0854,100.8755 L260.0934,100.8775 L260.0934,101.0985 Z M260.0884,102.3005 L260.0754,102.2275 L260.0754,102.3315 L260.0884,102.3315 L260.0864,102.7515 L260.0754,102.7505 L259.9824,102.7325 L260.0044,102.3345 L260.0064,102.3095 L260.0634,102.1505 L260.0754,102.2275 L260.0754,102.1125 L260.0884,102.0755 L260.0884,102.3005 Z M260.0864,102.8375 L260.0864,102.9135 L260.0754,102.9135 L259.9734,102.9135 L259.9784,102.8155 L259.9784,102.7865 L259.9804,102.7585 L260.0754,102.7785 L260.0754,102.8055 L260.0864,102.8075 L260.0864,102.8375 Z M260.0854,103.0695 L260.0754,103.0695 L259.9654,103.0745 L259.9714,102.9385 L260.0754,102.9365 L260.0864,102.9365 L260.0854,103.0695 Z M259.3924,101.7835 L259.1244,101.8115 L259.3924,101.8775 L259.3924,102.3705 L259.3924,102.6145 L258.9774,102.5325 L258.9374,102.3975 L258.7664,101.8485 L259.1244,101.8115 L258.7234,101.7115 L258.7184,101.6995 L259.2134,101.1395 L259.3924,101.1945 L259.3924,101.7835 Z M259.3924,102.6685 L259.3924,102.6965 L259.3924,102.9185 L259.0894,102.9205 L259.0014,102.6165 L258.9934,102.5905 L258.9844,102.5565 L259.3924,102.6415 L259.3924,102.6685 Z M259.3924,103.0765 L259.3824,103.1045 L259.1424,103.1215 L259.0954,102.9495 L259.3924,102.9455 L259.3924,103.0765 Z M258.5804,101.2685 L259.1134,101.1105 L259.1934,101.1345 L258.7114,101.6765 L258.5804,101.2685 Z M260.1194,102.8425 L260.1194,102.8155 L260.1194,102.7885 L260.1734,102.7975 L260.6574,102.8975 L260.7114,102.9075 L260.6534,102.9075 L260.5954,102.9095 L260.1784,102.8255 L260.1844,102.8585 L260.4464,102.9095 L260.1934,102.9115 L260.1194,102.9135 L260.1194,102.8425 Z M260.1194,102.4795 L260.1194,102.3295 L260.8184,102.2885 L260.6644,102.8665 L260.8194,102.2885 L260.9964,102.2775 L260.8334,102.2365 L260.1194,102.0595 L260.1194,101.9915 L260.2234,101.6955 L260.3034,101.4695 L260.4884,100.9485 L260.5164,100.9545 L260.8234,101.6275 L260.8254,101.6305 L260.9334,101.8655 L261.1194,102.2705 L260.9964,102.2775 L261.1374,102.3135 L261.4074,102.9035 L260.8674,102.9075 L260.6644,102.8665 L260.1684,102.7685 L260.1194,102.7585 L260.1194,102.4795 Z M260.1194,100.8835 L260.1664,100.8935 L260.1194,101.0255 L260.1194,100.8835 Z M261.1194,101.0465 L261.1494,101.0595 L261.0004,101.6125 L262.0974,101.4975 L262.1984,101.6125 C262.1944,101.7135 262.2654,101.8855 262.3944,102.1025 L260.9844,101.6755 L260.9374,101.8455 L260.8404,101.6305 L260.9844,101.6755 L261.0004,101.6125 L260.8384,101.6305 L260.5294,100.9565 L261.1194,101.0465 Z M262.2154,101.4835 L262.2864,101.5105 C262.2464,101.5165 262.2214,101.5285 262.2074,101.5555 L262.1514,101.4915 L262.2154,101.4835 Z M262.4234,102.1465 L262.3954,102.1955 L262.4514,102.1935 C262.5504,102.3525 262.6774,102.5355 262.8224,102.7325 L262.1984,102.5775 L262.0304,102.8975 L261.9874,102.8995 L261.4234,102.9035 L261.1534,102.3175 L261.1324,102.2705 L262.3494,102.1985 L262.3974,102.1055 L262.4234,102.1465 Z M278.7304,163.3965 C279.1994,162.0825 279.5734,160.7085 279.8334,159.2595 L279.8044,159.2535 C280.6994,154.4435 281.3284,149.9295 281.6894,145.7185 C281.7184,145.3715 281.7754,144.5825 281.8684,143.0955 C281.8944,142.6835 281.9394,141.7835 281.9954,140.4985 L281.9954,140.4515 L282.0064,140.1815 C282.1964,135.6975 282.0984,131.5425 281.7274,127.7385 C281.6484,126.9105 281.5574,126.1345 281.4654,125.4195 C281.3244,124.3575 281.2164,123.6095 281.1434,123.1835 L281.1114,122.9945 L281.1114,122.9475 C280.7004,120.5825 280.0544,118.3735 279.1734,116.3185 C278.5864,114.9475 277.9034,113.6695 277.1164,112.4665 C277.5204,111.3535 277.8444,110.2145 278.0924,109.0595 C278.5124,107.0825 278.7154,104.9795 278.6894,102.7685 L278.6894,102.7175 C278.6804,101.9305 278.6684,101.4375 278.6574,101.2445 C278.6294,100.7585 278.5864,100.2605 278.5304,99.7565 C278.4444,98.9505 278.3494,98.2645 278.2544,97.7155 C277.9024,95.6845 277.3334,93.8295 276.5544,92.1515 C275.5054,89.9035 274.0804,87.9885 272.2814,86.4035 L272.2814,86.3525 C270.8254,85.0745 269.1114,84.0475 267.1414,83.2915 L266.7954,83.1435 L266.4914,83.0365 L266.1444,82.9375 C264.2934,82.3445 262.2944,82.0455 260.1704,82.0365 L260.1194,81.9865 L260.0754,81.9865 C258.9434,81.9865 257.7984,82.0905 256.6594,82.2845 C255.1484,82.5415 253.7724,82.9565 252.5494,83.5085 L252.5494,83.5595 C251.1544,84.1985 249.9024,85.0055 248.7614,85.9755 L248.7554,85.9655 C248.4674,86.2115 248.1924,86.4655 247.9254,86.7235 L247.9114,86.7075 C246.3974,85.7015 244.8414,84.8975 243.2544,84.2965 L243.0064,84.1985 L242.5914,84.0515 L242.2454,83.9535 C240.1924,83.2905 238.0524,82.9525 235.8394,82.9425 L235.7894,82.8935 L235.7554,82.8935 C233.1754,82.8935 230.6824,83.3175 228.2874,84.1635 C225.9654,84.9775 223.8294,86.1865 221.8834,87.7785 L221.8784,87.7715 C220.2344,89.0755 218.6744,90.5595 217.1894,92.2095 C216.7954,91.5635 216.3494,90.9365 215.8614,90.3395 C215.4494,89.8315 215.0314,89.3795 214.6124,88.9735 L214.5814,88.9425 L214.5484,88.9095 L214.5464,88.9115 C214.0744,88.4575 213.5994,88.0475 213.1504,87.7055 L212.9554,87.5765 L212.9554,87.5755 C211.5924,86.5675 210.0954,85.7825 208.4674,85.2175 L208.0714,85.0695 L207.8204,84.9895 L207.5214,84.8915 C205.9964,84.4565 204.2654,84.2275 202.3524,84.2175 L202.3024,84.1675 L202.2564,84.1675 C199.7584,84.1675 197.2354,84.6655 194.6334,85.5615 C189.7554,87.2435 187.9434,89.0575 185.2184,91.9725 C178.6594,98.9935 178.5184,109.2595 178.5184,109.2595 C177.1324,108.9985 173.9914,108.3605 172.4224,108.3565 L172.4224,108.3055 L172.3814,108.3055 C169.8694,108.3055 167.3594,108.7765 164.8604,109.7355 C164.4234,109.9035 164.0394,110.0655 163.7214,110.2045 C163.3164,109.6685 162.8794,109.1535 162.4194,108.6665 C158.8524,104.8995 154.4024,103.0105 149.0704,103.0105 L149.0704,103.0595 C144.8114,103.0595 141.0614,104.2135 137.8394,106.5105 L137.8574,106.5385 C137.1584,107.0365 136.5424,107.5345 136.0064,108.0345 L135.8334,108.2045 C131.8044,105.3275 127.1474,103.8795 121.8824,103.8795 L121.8824,103.9305 C116.7124,103.9305 111.6914,105.2175 106.8354,107.7955 C105.9364,108.2745 105.1594,108.7135 104.5144,109.1115 C104.9214,105.6985 105.1324,102.1665 105.1324,98.5135 C105.1324,88.0595 103.8934,79.4335 101.3564,72.1825 C99.1134,65.7065 95.6144,59.7915 90.9324,54.5535 C98.5684,43.8725 99.8454,31.1865 97.4104,21.0385 C94.3574,8.3135 83.0104,0.8845 70.9114,0.8845 C57.8574,0.8845 47.2004,8.0485 43.3434,19.0385 C39.8964,28.8625 42.8564,37.5705 44.0104,40.2845 C32.8774,42.3815 23.0564,48.6525 14.7364,58.9945 C4.9584,71.0945 0.0004,85.8215 0.0004,102.7665 C0.0004,113.0185 1.2274,121.3575 3.7264,128.1895 C5.7974,133.9545 9.1504,139.6595 13.9224,145.5205 C10.0534,148.1375 6.9694,151.1345 4.7314,154.4585 C1.5914,159.1175 0.0004,164.5525 0.0004,170.6175 C0.0004,178.9135 2.7794,186.1645 8.0464,191.5935 C12.7544,196.4375 18.8534,199.2775 25.8204,199.9005 C27.9544,203.0095 30.1604,216.9995 63.5914,216.9995 L246.4794,216.9995 C266.6814,216.9995 283.2054,200.6715 283.2054,180.7075 L283.2054,180.7055 C283.2054,174.4485 281.5814,168.5485 278.7304,163.3965 L278.7304,163.3965 Z" mask="url(#gentlilogo-b)"/>
    </g>
    <polygon fill="#231F20" points="259.979 102.931 260.076 103.029 260.076 102.951"/>
    <polygon fill="#231F20" points="260.075 102.867 260.075 102.447 260.004 102.451"/>
    <polygon fill="#231F20" points="260.185 102.974 260.12 102.958 260.194 103.027"/>
    <polygon fill="#231F20" points="260.075 102.951 260.086 102.954 260.075 102.949"/>
    <polygon fill="#231F20" points="260.075 102.922 259.978 102.902 260.075 102.949"/>
    <polygon fill="#231F20" points="260.173 102.914 260.119 102.932 260.179 102.941"/>
    <polygon fill="#231F20" points="262.158 102.683 262.198 102.693 262.395 102.311 262.349 102.314"/>
    <polygon fill="#231F20" points="261.153 102.433 261.987 103.015 262.158 102.683"/>
    <path fill="#231F20" d="M34.1084 174.2996L32.8544 174.2996 31.1694 174.6376C30.3474 174.7986 29.5534 174.8736 28.6724 174.8736 26.8914 174.8736 26.4594 174.4266 26.1824 174.1406 25.9334 173.8836 25.2744 173.2006 25.2744 170.7336 25.2744 169.7756 25.4164 169.0776 25.6984 168.6576 25.9594 168.2696 26.8064 167.2416 29.1404 165.8626 30.0774 168.6376 31.5554 170.6656 32.8764 172.0456L33.2724 172.4416C34.1294 173.2606 35.0154 173.9046 35.8814 174.4146 35.3014 174.3386 34.7094 174.2996 34.1084 174.2996M73.2676 183.2752C69.7076 186.5702 63.5506 188.2412 54.9686 188.2412 52.1646 188.2412 50.1536 187.7162 47.7946 186.3702 47.6976 186.3142 47.6056 186.2602 47.5186 186.2092 47.3356 185.1902 47.0686 184.2172 46.7166 183.2782L46.6106 183.0042C45.7456 180.8502 44.4566 179.0242 42.8646 177.6082 48.8066 180.9282 54.1956 183.0162 59.9076 183.0162 64.4556 183.0162 68.7246 181.5952 72.2526 178.9062 73.9066 177.6452 75.6086 176.9212 76.9226 176.9212 77.2006 176.9212 77.7516 176.9212 78.5456 177.3392 77.6506 178.6992 76.0246 180.7232 73.2676 183.2752"/>
    <path fill="#FEFEFE" d="M17.0933,182.9207 C13.9183,180.0597 12.6373,175.7977 12.6373,170.7327 C12.6373,167.2217 13.4813,164.1847 15.2043,161.6177 C16.9243,159.0537 19.5923,156.7587 23.2043,154.6977 C24.0143,154.2937 25.1963,153.7217 26.7813,152.9087 C31.2723,150.7487 33.4993,148.7587 33.4993,147.0027 C33.4993,146.0577 32.4863,145.0107 30.4963,143.8287 C28.4703,142.6477 27.2213,141.7367 26.6803,141.1627 C21.2803,135.2217 17.5663,129.5167 15.6093,124.0477 C13.6173,118.5787 12.6373,111.5247 12.6373,102.8827 C12.6373,88.8417 16.5873,76.8907 24.5213,67.0327 C32.4193,57.1757 41.7553,53.3087 52.4033,52.2487 C56.4623,51.8457 65.1913,52.7177 65.1913,52.7177 C65.1913,52.7177 67.2283,46.6077 60.1663,41.8207 C56.6643,39.4477 54.4963,35.3347 54.1663,32.6537 C52.3523,17.8997 63.9353,13.5627 70.6223,13.4692701 C83.4173,13.2957 93.0813,29.2047 79.8163,49.5307 C77.2793,53.4197 74.1653,54.8417 74.2773,54.9137 C92.6363,66.8107 92.0663,89.7187 92.0663,98.6297 C92.0663,110.1067 89.8043,119.9307 85.2823,128.0987 C80.7593,136.2687 74.2093,142.4457 65.5673,146.5967 C63.2393,147.7117 59.5923,148.7917 54.5643,149.8717 C45.4163,151.7607 40.8243,155.1047 40.8243,159.8287 C40.8243,161.3487 41.2293,162.4967 42.0053,163.3077 C42.8163,164.0827 60.0013,172.3547 64.5913,168.8567 C72.3443,162.9457 82.0253,162.1377 89.6413,170.1887 C95.8053,176.7057 92.0663,202.4327 54.9683,200.8777 C49.6393,200.6537 45.4823,199.6007 41.5303,197.3447 C37.6193,195.1117 36.8343,194.0757 35.3313,190.9367 C34.5823,189.3717 34.0213,186.7317 28.0623,187.4457 C24.9373,187.8207 21.1253,186.5537 17.0933,182.9207 M49.1293,73.7177 C49.1293,77.2287 48.8593,83.8107 48.3183,93.4987 C47.8113,103.1867 47.5423,111.0187 47.5423,117.0277 C47.5423,126.7817 48.1163,133.1607 49.2293,136.1997 C50.3453,139.2387 52.4363,140.7587 55.4743,140.7587 C56.8593,140.7587 58.0083,140.2837 58.9173,139.3737 C59.8643,138.4617 60.3353,137.2467 60.3353,135.7277 C60.3353,135.3917 59.8973,134.2427 59.0863,132.2507 C58.2423,130.2917 57.8393,128.0297 57.8393,125.5337 L57.8393,121.4827 C57.8393,120.0297 57.7713,118.0047 57.6353,115.4067 C57.5013,112.8057 57.4663,110.8487 57.4663,109.5997 C57.4663,109.3987 57.5673,106.2927 57.8393,100.2497 C58.1083,94.2417 58.2423,88.2997 58.2423,82.4257 C58.2423,73.1767 57.7713,67.1007 56.8593,64.1637 C55.9473,61.2267 54.3273,59.7747 51.9983,59.7747 C50.8163,59.7747 49.6353,60.2807 48.4203,61.2617 C47.2393,62.2397 46.6653,63.2517 46.6653,64.2327 C46.6653,64.3667 47.0703,65.4467 47.8793,67.5387 C48.7233,69.5997 49.1293,71.6577 49.1293,73.7177"/>
    <path stroke="#231F20" stroke-width=".75" d="M42.711,162.5887 C37.68,164.1887 34.077,166.5047 31.904,169.5377"/>
    <path stroke="#FEFEFE" d="M90.8448,173.3797 C98.9388,194.3947 73.2018,209.4697 48.8918,204.3057 C38.9718,202.1977 34.9308,197.7727 33.2048,194.1957 C32.1168,191.9417 31.4928,190.6027 28.8368,190.5967 C22.4958,190.5827 9.6878,187.3837 13.3008,167.7777"/>
    <path fill="#231F20" d="M32.1851 167.7781C32.8291 167.7781 33.3511 168.3391 33.3511 169.0321 33.3511 169.7251 32.8291 170.2861 32.1851 170.2861 31.5421 170.2861 31.0201 169.7251 31.0201 169.0321 31.0201 168.3391 31.5421 167.7781 32.1851 167.7781M37.0386 170.5789C37.6836 170.5789 38.2046 171.1399 38.2046 171.8329 38.2046 172.5259 37.6836 173.0889 37.0386 173.0889 36.3966 173.0889 35.8746 172.5259 35.8746 171.8329 35.8746 171.1399 36.3966 170.5789 37.0386 170.5789M41.9214 173.3972C42.5654 173.3972 43.0874 173.9592 43.0874 174.6512 43.0874 175.3462 42.5654 175.9072 41.9214 175.9072 41.2784 175.9072 40.7564 175.3462 40.7564 174.6512 40.7564 173.9592 41.2784 173.3972 41.9214 173.3972"/>
    <path stroke="#231F20" stroke-width=".75" d="M52.3638 167.5711C47.4198 169.1411 43.8798 171.4171 41.7458 174.3951M47.5098 165.3071C42.7718 166.8131 39.3788 168.9931 37.3328 171.8481M35.667 159.0652C35.884 160.4782 37.214 164.5202 37.214 164.5202 37.214 164.5202 38.528 162.1692 38.919 161.3502 40.176 158.7202 39.193 157.1452 38.167 156.6922 37.2 156.2662 35.223 156.1712 35.667 159.0652z"/>
    <path stroke="#231F20" stroke-width=".75" d="M29.5508,159.8015 L37.2758,164.5305 L29.4568,166.6375 C21.4398,168.0275 23.3308,156.4265 29.5508,159.8015 Z"/>
    <path fill="#FEFEFE" d="M155.336 136.4793L157.69 133.0413C160.084 129.7393 162.038 127.2763 163.5 125.6493 164.978 124.0243 166.333 122.8503 167.6 122.1293 168.866 121.4093 170.231 121.0553 171.672 121.0553 173.984 121.0553 175.735 121.6763 176.905 122.9163 178.063 124.1743 178.92 126.3213 179.455 129.4053 179.676 130.6783 179.94 132.5703 180.031 135.0533 180.588 150.1673 183.19 154.7803 184.085 156.7423 185.378 159.5743 183.065 161.3543 181.519 162.0083 179.955 162.6633 178.606 162.9973 177.466 162.9973 175.605 162.9973 173.784 162.3603 172.056 161.0863 170.31 159.8133 168.827 158.0363 167.597 155.7723 166.367 153.5103 165.506 150.9613 165.013 148.1123 164.684 146.2173 164.496 143.9713 164.435 141.3893L164.198 141.1883C163.064 142.7643 162.155 144.0043 161.443 144.9263 160.731 145.8483 160.074 146.7043 159.463 147.5243 156.519 151.7153 154.073 155.5043 152.093 158.8743 151.35 160.1983 150.643 161.3383 149.992 162.3273 148.995 163.5343 147.725 164.1373 146.183 164.1373 144.087 164.1373 142.24 163.3503 140.661 161.7743 139.083 160.2153 138.075 158.1703 137.645 155.6883 137.378 154.1473 137.236 152.2683 137.202 150.0403 137.184 147.8113 137.257 145.4303 137.422 142.8993 137.585 140.3503 137.855 137.7523 138.225 135.0533 138.582 132.3723 139.063 129.8233 139.613 127.3933 140.424 123.3703 141.709 120.2353 143.479 117.9713 144.697 116.4973 146.363 115.7583 148.459 115.7583 151.861 115.7583 153.939 117.9713 154.702 122.3813 155.266 125.6333 155.397 130.2603 155.1 136.2783L155.336 136.4793zM188.6573 115.9265L188.7563 115.3405C189.8613 109.2385 190.9783 104.9475 192.1243 102.4665 192.6753 101.2925 193.5313 100.2365 194.7163 99.3315 196.9683 97.7225 199.1913 96.9175 201.4213 96.9175 202.7283 96.9175 203.7873 97.2195 204.5763 97.8055 205.3653 98.3925 205.8473 99.2475 206.0403 100.3535 206.1713 101.1085 205.9523 102.6505 205.3813 104.9635 204.3753 108.8355 203.7623 112.4575 203.5243 115.8265 204.0903 115.8935 204.6433 115.9925 205.2003 116.1105 207.2153 116.4125 208.5633 116.7485 209.2473 117.1175 209.9333 117.5025 210.3683 118.1725 210.5403 119.1625 210.8433 120.9055 210.6653 122.4985 210.0503 123.9735 209.4173 125.4475 208.4493 126.5375 207.1273 127.2255 206.1213 127.7115 204.4333 128.0305 202.0323 128.1975 201.8333 129.4715 201.6263 142.4805 201.5183 144.7115 201.2903 149.4685 203.1093 153.8045 208.7523 152.6345 211.7423 152.0145 212.1983 154.6495 211.3063 155.8895 210.4013 157.1475 209.3673 158.2375 208.1913 159.1925 206.9183 160.1645 205.4793 160.9515 203.8873 161.5375 202.2803 162.1255 200.7903 162.4285 199.4153 162.4285 195.9783 162.4285 192.9953 161.2705 190.4463 158.9405 187.8963 156.6105 186.2923 153.5435 185.6273 149.7035 185.3443 148.0765 185.2583 145.9325 185.3663 143.2665 185.4763 140.6175 185.7663 137.0655 186.2033 132.6215 186.2673 131.8345 186.3263 131.0125 186.4103 130.1415 186.4943 129.2705 186.5213 128.7505 186.5283 128.6005 185.2153 128.5655 184.2443 128.2805 183.5843 127.7625 182.9373 127.2255 182.5243 126.3875 182.3183 125.1965 181.9613 123.1355 182.4113 121.1905 183.6863 119.3645 184.9433 117.5185 186.6063 116.3795 188.6573 115.9265M235.9561 126.6726C236.6241 122.9836 237.0601 119.1116 237.2311 115.0706 237.4201 111.0316 237.3181 107.9306 236.9431 105.7686 236.8421 105.1816 236.6381 104.8806 236.3031 104.8806 235.7831 104.8806 235.0651 106.0536 234.1611 108.3836 233.2431 110.7296 232.5661 113.1096 232.1001 115.5416 231.1291 120.8716 230.4211 125.2976 230.0081 128.8176 229.5791 132.3366 229.3871 135.2876 229.3961 137.6686 229.4271 140.0656 229.6461 142.4966 230.0801 144.9926 230.4481 147.1216 230.9531 148.6826 231.5921 149.6546 232.2491 150.6436 233.0881 151.1296 234.1441 151.1296 235.9371 151.1296 237.8121 150.3406 239.7661 148.7486 241.7191 147.1566 243.3711 145.0766 244.7171 142.4966 245.7881 140.5516 246.7281 139.5966 247.5171 139.5966 248.5221 139.5966 249.1821 140.4016 249.4571 141.9926 250.0651 145.4966 249.5541 148.9326 247.9361 152.2686 246.3181 155.6046 243.9731 158.3206 240.8801 160.3996 237.7871 162.4776 234.4301 163.5166 230.8431 163.5166 226.4171 163.5166 222.5721 162.1256 219.3071 159.3426 216.0421 156.5596 214.0201 152.9226 213.2441 148.4456 212.6081 144.7766 212.6491 140.4676 213.3711 135.5396 214.0791 130.6276 215.3311 125.6646 217.0981 120.6706 218.8621 115.6746 220.9781 111.1496 223.4101 107.0926 225.8551 103.0196 228.4201 99.9176 231.1291 97.7556 232.7791 96.3476 234.7691 95.6436 237.1001 95.6436 238.8591 95.6436 240.5641 96.1966 242.1951 97.2866 243.8291 98.3926 245.1991 99.9176 246.3261 101.8786 247.4551 103.8406 248.2181 106.0196 248.6341 108.4166 249.5221 113.5456 249.3891 118.5746 248.2281 123.4866 247.0671 128.3996 245.0071 132.6566 242.0261 136.2606 240.6161 137.9866 239.2261 139.3446 237.8211 140.3326 236.4141 141.3056 235.1241 141.7916 233.9501 141.7916 232.7931 141.7916 232.1481 141.3566 231.9941 140.4676 231.9101 139.9816 232.1841 139.0436 232.7821 137.6686 233.6291 135.8736 234.4991 133.1586 235.4111 129.5226 235.4841 129.1686 235.5681 128.7836 235.6631 128.3636 235.7441 127.9616 235.8461 127.3936 235.9561 126.6726M263.3116 162.8972C261.8186 162.7972 260.3616 162.1262 258.9396 160.8852 257.4896 159.5792 256.3866 158.1532 255.6236 156.6452 254.8566 155.1182 254.2456 153.1412 253.8266 150.7272 252.8886 145.3132 252.8386 139.2272 253.6876 132.4222 254.5226 125.6332 255.9516 120.7212 257.9706 117.6702 258.7726 116.3952 260.0706 115.7582 261.8636 115.7582 263.7746 115.7582 265.4516 116.6312 266.9076 118.3582 268.3826 120.1002 269.3446 122.3642 269.8326 125.1802 270.5536 129.3362 270.8116 134.2152 270.5726 139.7972 270.3496 145.3792 269.6786 151.1782 268.5596 157.1982 268.1256 159.6272 267.3686 161.2542 266.2586 162.1102 265.5116 162.6272 264.5516 162.8972 263.4126 162.8972L263.3116 162.8972zM260.6426 113.5457C257.5566 113.4457 255.6956 111.6027 255.0706 107.9977 254.7586 106.2047 254.8496 104.1087 255.3416 101.7287 255.8206 99.3647 256.5386 97.6057 257.4966 96.4647 257.9736 95.8277 258.4836 95.3927 259.0586 95.1247 259.6176 94.8727 260.3666 94.7377 261.3216 94.7377 262.9476 94.7377 264.2236 95.1407 265.1346 95.9447 266.0446 96.7497 266.6606 98.0737 266.9856 99.9517 267.3866 102.2657 267.3686 104.4787 266.9236 106.5567 266.4786 108.6347 265.6966 110.3117 264.5796 111.6027 263.4616 112.8937 262.2016 113.5457 260.7926 113.5457L260.6426 113.5457zM111.1329 146.2019C110.7869 144.2059 110.7769 141.8269 111.1019 139.0589 111.4279 136.2939 111.9849 133.5129 112.7759 130.7289 114.1399 126.1199 115.3479 123.8059 116.3869 123.8059 117.1419 123.8059 117.6839 124.7119 117.9949 126.5049 118.3289 128.4319 118.4719 130.5109 118.4219 132.7409 118.3889 134.9699 118.1519 136.9809 117.7079 138.7739 117.2289 141.5239 116.3119 143.9719 114.9539 146.0999 114.3409 147.1059 113.3619 148.1299 112.0439 149.1359 111.5549 147.8599 111.2519 146.8879 111.1329 146.2019M132.6519 147.6259C131.7039 147.0889 130.7559 146.8389 129.7669 146.8389 128.9789 146.8389 127.5819 147.6769 125.5899 149.3369 122.1499 152.2199 119.2149 153.6609 116.7509 153.6609 114.5549 153.6609 113.1089 152.6729 112.4009 150.7099 113.2189 151.0789 113.9859 151.2469 114.7069 151.2469 116.3159 151.2469 118.0849 150.6259 120.0159 149.3859 121.9469 148.1449 123.8239 146.4009 125.6699 144.1899 127.9239 141.5239 129.5059 138.7589 130.4009 135.8909 131.2919 133.0089 131.4999 130.2429 131.0379 127.5769 130.4489 124.1749 129.1149 121.5089 127.0309 119.5479 124.9349 117.6019 122.3519 116.6319 119.2849 116.6319 115.0269 116.6319 110.8349 118.1729 106.7259 121.2569 103.3959 123.8059 100.7799 126.9909 98.8469 130.8289 97.2169 134.0979 96.0839 137.6179 95.4419 141.3559 94.8009 145.1119 94.7479 148.4809 95.2619 151.4479 95.9389 155.3539 97.7039 158.4719 100.5579 160.8189 103.4249 163.1489 106.8979 164.3209 110.9879 164.3209 112.6309 164.3209 114.4359 164.0029 116.4209 163.3659 118.4069 162.7289 120.3509 161.8579 122.2579 160.7679 124.1609 159.6609 126.1019 158.2879 128.0769 156.6279 130.0549 154.9849 131.7569 153.2919 133.1809 151.5479 133.9709 150.5929 134.3089 149.8389 134.2049 149.2349 134.1089 148.6819 133.5979 148.1449 132.6519 147.6259M153.7559 191.179C153.7559 192.159 153.5569 193.021 153.1599 193.762 152.7619 194.502 152.2249 195.12 151.5449 195.616 150.8649 196.112 150.0719 196.485 149.1619 196.735 148.2539 196.985 147.2809 197.11 146.2479 197.11 145.5469 197.11 144.8969 197.057 144.2969 196.95 143.6949 196.845 143.1659 196.718 142.7049 196.569 142.2459 196.419 141.8619 196.263 141.5539 196.099 141.2449 195.936 141.0229 195.791 140.8879 195.666 140.7519 195.541 140.6549 195.362 140.5979 195.125 140.5399 194.89 140.5109 194.551 140.5109 194.108 140.5109 193.81 140.5219 193.56 140.5429 193.358 140.5639 193.156 140.5979 192.992 140.6449 192.866 140.6919 192.742 140.7549 192.653 140.8329 192.6 140.9109 192.547 141.0029 192.521 141.1069 192.521 141.2529 192.521 141.4599 192.6 141.7259 192.759 141.9929 192.917 142.3339 193.093 142.7519 193.285 143.1699 193.478 143.6699 193.654 144.2499 193.812 144.8299 193.971 145.4999 194.05 146.2639 194.05 146.7659 194.05 147.2149 193.995 147.6109 193.884 148.0079 193.774 148.3459 193.617 148.6229 193.415 148.8989 193.213 149.1109 192.963 149.2579 192.665 149.4019 192.366 149.4769 192.034 149.4769 191.669 149.4769 191.246 149.3519 190.883 149.0999 190.579 148.8499 190.277 148.5239 190.007 148.1209 189.772 147.7189 189.536 147.2619 189.315 146.7499 189.108 146.2359 188.901 145.7089 188.682 145.1659 188.451 144.6229 188.22 144.0959 187.958 143.5839 187.664 143.0699 187.371 142.6129 187.02 142.2119 186.612 141.8099 186.202 141.4829 185.719 141.2329 185.161 140.9819 184.603 140.8559 183.935 140.8559 183.156 140.8559 182.26 141.0369 181.474 141.3969 180.796 141.7569 180.117 142.2429 179.555 142.8539 179.108 143.4649 178.66 144.1879 178.325 145.0179 178.105 145.8479 177.883 146.7289 177.773 147.6579 177.773 148.1389 177.773 148.6189 177.806 149.0999 177.873 149.5799 177.941 150.0289 178.033 150.4469 178.148 150.8649 178.263 151.2359 178.393 151.5609 178.537 151.8849 178.682 152.0999 178.802 152.2029 178.898 152.3089 178.994 152.3789 179.076 152.4139 179.144 152.4509 179.211 152.4829 179.3 152.5099 179.41 152.5349 179.521 152.5529 179.66 152.5649 179.828 152.5739 179.997 152.5799 180.206 152.5799 180.456 152.5799 180.736 152.5719 180.971 152.5569 181.163 152.5409 181.357 152.5139 181.515 152.4789 181.64 152.4419 181.765 152.3889 181.857 152.3199 181.914 152.2519 181.972 152.1619 182 152.0469 182 151.9319 182 151.7479 181.934 151.4979 181.799 151.2479 181.664 150.9399 181.517 150.5739 181.359 150.2069 181.2 149.7849 181.056 149.3049 180.926 148.8219 180.796 148.2949 180.731 147.7209 180.731 147.2719 180.731 146.8789 180.782 146.5449 180.882 146.2109 180.984 145.9319 181.123 145.7069 181.301 145.4829 181.479 145.3149 181.693 145.2049 181.943 145.0959 182.194 145.0409 182.457 145.0409 182.737 145.0409 183.151 145.1639 183.509 145.4079 183.812 145.6539 184.115 145.9849 184.384 146.3969 184.619 146.8089 184.856 147.2769 185.076 147.7989 185.283 148.3219 185.491 148.8559 185.709 149.3989 185.941 149.9419 186.171 150.4749 186.433 150.9959 186.727 151.5199 187.02 151.9849 187.371 152.3909 187.781 152.7989 188.189 153.1289 188.67 153.3789 189.223 153.6289 189.777 153.7559 190.428 153.7559 191.179M179.1553 196.2581C179.1553 196.3551 179.1213 196.4411 179.0523 196.5181 178.9853 196.5951 178.8733 196.6571 178.7163 196.7051 178.5593 196.7541 178.3503 196.7921 178.0893 196.8201 177.8283 196.8501 177.4993 196.8641 177.1013 196.8641 176.6943 196.8641 176.3573 196.8501 176.0913 196.8201 175.8243 196.7921 175.6153 196.7541 175.4643 196.7051 175.3123 196.6571 175.2033 196.5951 175.1343 196.5181 175.0663 196.4411 175.0333 196.3551 175.0333 196.2581L175.0333 188.7111 167.4473 188.7111 167.4473 196.2581C167.4473 196.3551 167.4163 196.4411 167.3533 196.5181 167.2903 196.5951 167.1803 196.6571 167.0243 196.7051 166.8673 196.7541 166.6583 196.7921 166.3973 196.8201 166.1353 196.8501 165.8013 196.8641 165.3933 196.8641 164.9973 196.8641 164.6653 196.8501 164.3983 196.8201 164.1323 196.7921 163.9213 196.7541 163.7633 196.7051 163.6073 196.6571 163.4953 196.5951 163.4263 196.5181 163.3593 196.4411 163.3253 196.3551 163.3253 196.2581L163.3253 178.6241C163.3253 178.5281 163.3593 178.4421 163.4263 178.3641 163.4953 178.2871 163.6073 178.2251 163.7633 178.1771 163.9213 178.1281 164.1323 178.0901 164.3983 178.0611 164.6653 178.0321 164.9973 178.0181 165.3933 178.0181 165.8013 178.0181 166.1353 178.0321 166.3973 178.0611 166.6583 178.0901 166.8673 178.1281 167.0243 178.1771 167.1803 178.2251 167.2903 178.2871 167.3533 178.3641 167.4163 178.4421 167.4473 178.5281 167.4473 178.6241L167.4473 185.4791 175.0333 185.4791 175.0333 178.6241C175.0333 178.5281 175.0663 178.4421 175.1343 178.3641 175.2033 178.2871 175.3123 178.2251 175.4643 178.1771 175.6153 178.1281 175.8243 178.0901 176.0913 178.0611 176.3573 178.0321 176.6943 178.0181 177.1013 178.0181 177.4993 178.0181 177.8283 178.0321 178.0893 178.0611 178.3503 178.0901 178.5593 178.1281 178.7163 178.1771 178.8733 178.2251 178.9853 178.2871 179.0523 178.3641 179.1213 178.4421 179.1553 178.5281 179.1553 178.6241L179.1553 196.2581zM203.9122 187.427C203.9122 186.446 203.8282 185.553 203.6612 184.749 203.4942 183.947 203.2092 183.259 202.8072 182.686 202.4042 182.114 201.8692 181.671 201.2002 181.359 200.5312 181.046 199.6952 180.89 198.6922 180.89 197.6792 180.89 196.8332 181.065 196.1532 181.416 195.4742 181.768 194.9262 182.237 194.5082 182.823 194.0902 183.41 193.7952 184.096 193.6222 184.879 193.4502 185.663 193.3642 186.493 193.3642 187.368 193.3642 188.389 193.4472 189.305 193.6142 190.117 193.7812 190.931 194.0632 191.626 194.4612 192.203 194.8572 192.781 195.3912 193.22 196.0592 193.524 196.7282 193.826 197.5692 193.978 198.5832 193.978 199.5972 193.978 200.4422 193.805 201.1222 193.458 201.8012 193.113 202.3502 192.641 202.7672 192.044 203.1852 191.448 203.4802 190.753 203.6532 189.959 203.8252 189.165 203.9122 188.322 203.9122 187.427M208.2372 187.225C208.2372 188.774 208.0282 190.158 207.6102 191.38 207.1922 192.603 206.5712 193.639 205.7452 194.49 204.9202 195.342 203.8982 195.991 202.6822 196.439 201.4642 196.886 200.0572 197.11 198.4582 197.11 196.8802 197.11 195.5032 196.919 194.3282 196.539 193.1522 196.159 192.1732 195.58 191.3892 194.801 190.6052 194.022 190.0172 193.031 189.6262 191.828 189.2342 190.625 189.0382 189.201 189.0382 187.557 189.0382 186.046 189.2472 184.687 189.6652 183.48 190.0832 182.273 190.7042 181.245 191.5302 180.399 192.3552 179.552 193.3772 178.903 194.5942 178.45 195.8112 177.998 197.2252 177.773 198.8342 177.773 200.3702 177.773 201.7252 177.96 202.9002 178.335 204.0762 178.71 205.0582 179.287 205.8482 180.067 206.6362 180.846 207.2312 181.83 207.6342 183.018 208.0362 184.206 208.2372 185.609 208.2372 187.225M230.1426 195.2913C230.1426 195.5703 230.1286 195.8043 230.1036 195.9913 230.0776 196.1793 230.0386 196.3303 229.9856 196.4453 229.9336 196.5613 229.8686 196.6453 229.7896 196.6983 229.7106 196.7513 229.6246 196.7773 229.5316 196.7773L219.3436 196.7773C218.9986 196.7773 218.7086 196.6843 218.4736 196.4963 218.2386 196.3093 218.1216 196.0033 218.1216 195.5803L218.1216 179.3023C218.1216 178.8793 218.2386 178.5733 218.4736 178.3863 218.7086 178.1983 218.9986 178.1043 219.3436 178.1043L229.4686 178.1043C229.5626 178.1043 229.6456 178.1283 229.7186 178.1773 229.7916 178.2253 229.8546 178.3093 229.9076 178.4293 229.9586 178.5493 229.9986 178.7033 230.0246 178.8913 230.0506 179.0783 230.0636 179.3163 230.0636 179.6043 230.0636 179.8743 230.0506 180.1033 230.0246 180.2903 229.9986 180.4783 229.9586 180.6303 229.9076 180.7453 229.8546 180.8603 229.7916 180.9443 229.7186 180.9973 229.6456 181.0513 229.5626 181.0773 229.4686 181.0773L222.2276 181.0773 222.2276 185.6373 228.3556 185.6373C228.4496 185.6373 228.5366 185.6633 228.6146 185.7163 228.6926 185.7703 228.7576 185.8523 228.8106 185.9623 228.8626 186.0723 228.9016 186.2223 228.9276 186.4093 228.9536 186.5973 228.9666 186.8253 228.9666 187.0953 228.9666 187.3743 228.9536 187.6043 228.9276 187.7873 228.9016 187.9703 228.8626 188.1173 228.8106 188.2283 228.7576 188.3383 228.6926 188.4173 228.6146 188.4653 228.5366 188.5143 228.4496 188.5373 228.3556 188.5373L222.2276 188.5373 222.2276 193.8053 229.5316 193.8053C229.6246 193.8053 229.7106 193.8313 229.7896 193.8843 229.8686 193.9373 229.9336 194.0213 229.9856 194.1373 230.0386 194.2523 230.0776 194.4033 230.1036 194.5913 230.1286 194.7783 230.1426 195.0123 230.1426 195.2913M251.9063 191.179C251.9063 192.159 251.7073 193.021 251.3103 193.762 250.9133 194.502 250.3753 195.12 249.6963 195.616 249.0163 196.112 248.2223 196.485 247.3133 196.735 246.4043 196.985 245.4323 197.11 244.3983 197.11 243.6983 197.11 243.0483 197.057 242.4473 196.95 241.8463 196.845 241.3163 196.718 240.8563 196.569 240.3963 196.419 240.0123 196.263 239.7043 196.099 239.3963 195.936 239.1743 195.791 239.0383 195.666 238.9023 195.541 238.8053 195.362 238.7483 195.125 238.6903 194.89 238.6623 194.551 238.6623 194.108 238.6623 193.81 238.6733 193.56 238.6933 193.358 238.7153 193.156 238.7483 192.992 238.7963 192.866 238.8433 192.742 238.9053 192.653 238.9833 192.6 239.0613 192.547 239.1533 192.521 239.2583 192.521 239.4043 192.521 239.6103 192.6 239.8773 192.759 240.1433 192.917 240.4853 193.093 240.9033 193.285 241.3213 193.478 241.8203 193.654 242.4003 193.812 242.9803 193.971 243.6513 194.05 244.4143 194.05 244.9163 194.05 245.3653 193.995 245.7613 193.884 246.1593 193.774 246.4963 193.617 246.7733 193.415 247.0503 193.213 247.2613 192.963 247.4083 192.665 247.5533 192.366 247.6273 192.034 247.6273 191.669 247.6273 191.246 247.5023 190.883 247.2513 190.579 247.0003 190.277 246.6743 190.007 246.2713 189.772 245.8693 189.536 245.4123 189.315 244.9003 189.108 244.3873 188.901 243.8603 188.682 243.3173 188.451 242.7733 188.22 242.2463 187.958 241.7343 187.664 241.2213 187.371 240.7643 187.02 240.3623 186.612 239.9603 186.202 239.6343 185.719 239.3833 185.161 239.1333 184.603 239.0073 183.935 239.0073 183.156 239.0073 182.26 239.1873 181.474 239.5483 180.796 239.9083 180.117 240.3943 179.555 241.0053 179.108 241.6163 178.66 242.3383 178.325 243.1683 178.105 243.9993 177.883 244.8793 177.773 245.8093 177.773 246.2903 177.773 246.7703 177.806 247.2513 177.873 247.7313 177.941 248.1803 178.033 248.5983 178.148 249.0163 178.263 249.3873 178.393 249.7123 178.537 250.0353 178.682 250.2503 178.802 250.3543 178.898 250.4593 178.994 250.5293 179.076 250.5653 179.144 250.6023 179.211 250.6343 179.3 250.6603 179.41 250.6853 179.521 250.7043 179.66 250.7153 179.828 250.7243 179.997 250.7303 180.206 250.7303 180.456 250.7303 180.736 250.7223 180.971 250.7073 181.163 250.6913 181.357 250.6653 181.515 250.6293 181.64 250.5923 181.765 250.5403 181.857 250.4713 181.914 250.4033 181.972 250.3123 182 250.1973 182 250.0823 182 249.8993 181.934 249.6493 181.799 249.3983 181.664 249.0903 181.517 248.7243 181.359 248.3583 181.2 247.9353 181.056 247.4553 180.926 246.9733 180.796 246.4463 180.731 245.8723 180.731 245.4233 180.731 245.0303 180.782 244.6963 180.882 244.3623 180.984 244.0823 181.123 243.8573 181.301 243.6333 181.479 243.4663 181.693 243.3563 181.943 243.2473 182.194 243.1913 182.457 243.1913 182.737 243.1913 183.151 243.3143 183.509 243.5593 183.812 243.8053 184.115 244.1353 184.384 244.5483 184.619 244.9603 184.856 245.4273 185.076 245.9503 185.283 246.4723 185.491 247.0063 185.709 247.5493 185.941 248.0923 186.171 248.6253 186.433 249.1473 186.727 249.6703 187.02 250.1353 187.371 250.5423 187.781 250.9503 188.189 251.2793 188.67 251.5303 189.223 251.7803 189.777 251.9063 190.428 251.9063 191.179"/>
  </g>
</svg>
